<!-- PWA Screenhot - Mobile Dashboard -->
<!-- Replace with actual screenhot after testing -->

<svg width="540" height="720" viewBox="0 0 540 720" fill="none" xmlns="http://www.w3.org/2000/svg">
  <!-- Background gradient -->
  <rect width="540" height="720" fill="url(#grad1)"/>
  
  <!-- Phone mockup -->
  <rect x="70" y="60" width="400" height="600" rx="40" fill="#1e293b" stroke="#334155" stroke-width="4"/>
  
  <!-- Screen content -->
  <rect x="85" y="90" width="370" height="540" rx="8" fill="#f8fafc"/>
  
  <!-- Header -->
  <rect x="85" y="90" width="370" height="80" rx="8" fill="#059669"/>
  <text x="270" y="145" text-anchor="middle" fill="white" font-size="20" font-weight="bold">Ledger Audit Pro</text>
  
  <!-- Account cards -->
  <rect x="110" y="200" width="320" height="100" rx="12" fill="white" stroke="#e2e8f0" stroke-width="2"/>
  <rect x="130" y="220" width="40" height="40" rx="8" fill="#f1f5f9"/>
  <text x="270" y="250" text-anchor="middle" fill="#0f172a" font-size="16" font-weight="600">Personal Checking</text>
  <text x="270" y="275" text-anchor="middle" fill="#64748b" font-size="12">Balance: $12,450.00</text>
  
  <rect x="110" y="320" width="320" height="100" rx="12" fill="white" stroke="#e2e8f0" stroke-width="2"/>
  <rect x="130" y="340" width="40" height="40" rx="8" fill="#f1f5f9"/>
  <text x="270" y="370" text-anchor="middle" fill="#0f172a" font-size="16" font-weight="600">Savings Account</text>
  <text x="270" y="395" text-anchor="middle" fill="#64748b" font-size="12">Balance: $24,500.00</text>
  
  <!-- Stats cards -->
  <rect x="110" y="440" width="150" height="80" rx="8" fill="#059669"/>
  <text x="185" y="475" text-anchor="middle" fill="white" font-size="12">Credit</text>
  <text x="185" y="500" text-anchor="middle" fill="white" font-size="18" font-weight="bold">+$36,950</text>
  
  <rect x="280" y="440" width="150" height="80" rx="8" fill="#e11d48"/>
  <text x="355" y="475" text-anchor="middle" fill="white" font-size="12">Debit</text>
  <text x="355" y="500" text-anchor="middle" fill="white" font-size="18" font-weight="bold">-$24,500</text>
  
  <!-- Install button (floating) -->
  <rect x="170" y="620" width="200" height="50" rx="25" fill="#059669"/>
  <text x="270" y="650" text-anchor="middle" fill="white" font-size="14" font-weight="600">Install App</text>
  
  <!-- Gradient definitions -->
  <defs>
    <linearGradient id="grad1" x1="0%" y1="0%" x2="0%" y2="100%">
      <stop offset="0%" stop-color="#059669" />
      <stop offset="100%" stop-color="#0f766e" />
    </linearGradient>
  </defs>
</svg>
